<?xml version="1.0" encoding="utf-8"?>
<svg width="146" height="24" xmlns="http://www.w3.org/2000/svg">
  <g fill="none" fill-rule="evenodd">
    <g>
      <path fill-rule="nonzero" d="M 40.014 16.809 L 40.014 8.553 C 40.014 6.976 40.38 5.733 41.112 4.823 C 41.845 3.913 42.762 3.458 43.862 3.458 C 46.02 3.458 47.099 5.035 47.099 8.189 L 47.099 16.809 L 50.881 16.809 L 50.881 7.229 C 50.881 4.814 50.381 3.009 49.378 1.812 C 48.376 0.615 46.945 0.017 45.084 0.017 C 43.862 0.017 42.744 0.251 41.732 0.72 C 40.726 1.183 39.847 1.885 39.172 2.763 L 39.106 2.763 C 38.126 0.932 36.486 0.017 34.184 0.017 C 33.215 0.017 32.282 0.234 31.385 0.67 C 30.473 1.117 29.67 1.758 29.032 2.548 L 28.982 2.548 L 28.982 0.265 L 25.2 0.265 L 25.2 16.792 L 28.982 16.792 L 28.982 8.553 C 28.982 6.976 29.354 5.733 30.097 4.823 C 30.84 3.913 31.79 3.458 32.946 3.458 C 35.136 3.458 36.232 5.035 36.232 8.189 L 36.232 16.809 L 40.014 16.809 L 40.014 16.809 Z M 61.115 17.057 C 63.361 17.057 65.112 16.23 66.367 14.575 L 66.417 14.575 L 66.417 16.792 L 70.033 16.792 L 70.033 0.265 L 66.251 0.265 L 66.251 2.25 L 66.185 2.25 C 64.93 0.761 63.23 0.017 61.082 0.017 C 58.936 0.002 56.879 0.876 55.401 2.432 C 54.696 3.182 54.141 4.092 53.733 5.162 C 53.32 6.262 53.113 7.428 53.122 8.602 C 53.122 9.86 53.325 11.018 53.732 12.077 C 54.14 13.136 54.696 14.029 55.401 14.757 C 56.118 15.493 56.982 16.071 57.936 16.453 C 58.946 16.86 60.027 17.066 61.116 17.057 L 61.115 17.057 Z M 61.71 13.616 C 60.311 13.616 59.172 13.15 58.291 12.218 C 57.411 11.286 56.97 10.086 56.97 8.619 C 56.97 7.064 57.424 5.815 58.332 4.872 C 59.241 3.929 60.372 3.458 61.726 3.458 C 63.069 3.458 64.184 3.951 65.071 4.938 C 65.957 5.926 66.401 7.153 66.401 8.619 C 66.401 10.086 65.946 11.286 65.038 12.218 C 64.129 13.15 63.02 13.616 61.71 13.616 L 61.71 13.616 Z M 88.822 16.809 L 88.822 7.064 C 88.822 4.671 88.286 2.898 87.212 1.745 C 86.14 0.593 84.655 0.017 82.762 0.017 C 81.709 0.011 80.667 0.231 79.706 0.662 C 78.75 1.091 77.903 1.73 77.229 2.532 L 77.179 2.532 L 77.179 0.264 L 73.397 0.264 L 73.397 16.791 L 77.179 16.791 L 77.179 8.487 C 77.179 6.899 77.567 5.664 78.343 4.781 C 79.12 3.899 80.157 3.458 81.456 3.458 C 82.051 3.458 82.56 3.535 82.984 3.689 C 83.408 3.844 83.78 4.095 84.099 4.442 C 84.419 4.79 84.655 5.261 84.809 5.857 C 84.963 6.452 85.04 7.18 85.04 8.04 L 85.04 16.809 L 88.822 16.809 L 88.822 16.809 Z M 99.04 17.057 C 101.286 17.057 103.036 16.23 104.292 14.575 L 104.342 14.575 L 104.342 16.792 L 107.958 16.792 L 107.958 0.265 L 104.176 0.265 L 104.176 2.25 L 104.11 2.25 C 102.855 0.761 101.154 0.017 99.007 0.017 C 96.861 0.001 94.803 0.876 93.325 2.432 C 92.621 3.182 92.065 4.092 91.657 5.162 C 91.245 6.262 91.038 7.428 91.047 8.602 C 91.047 9.86 91.25 11.018 91.657 12.077 C 92.065 13.136 92.621 14.029 93.325 14.757 C 94.042 15.494 94.906 16.071 95.861 16.453 C 96.871 16.86 97.951 17.066 99.04 17.057 L 99.04 17.057 Z M 99.634 13.616 C 98.236 13.616 97.096 13.15 96.216 12.218 C 95.335 11.286 94.894 10.086 94.894 8.619 C 94.894 7.064 95.349 5.815 96.257 4.872 C 97.165 3.929 98.297 3.458 99.651 3.458 C 100.994 3.458 102.109 3.951 102.995 4.938 C 103.881 5.926 104.325 7.153 104.325 8.619 C 104.325 10.086 103.87 11.286 102.962 12.218 C 102.054 13.15 100.944 13.616 99.634 13.616 L 99.634 13.616 Z M 118.704 23.741 C 119.904 23.741 120.978 23.601 121.924 23.319 C 122.871 23.038 123.667 22.646 124.311 22.144 C 124.959 21.638 125.503 21.012 125.913 20.3 C 126.342 19.559 126.651 18.755 126.829 17.917 C 127.017 17.057 127.11 16.114 127.11 15.088 L 127.11 0.265 L 123.328 0.265 L 123.328 2.002 L 123.262 2.002 C 122.584 1.354 121.785 0.847 120.909 0.512 C 120.026 0.171 119.088 -0.003 118.142 0 C 116.634 0 115.28 0.358 114.08 1.075 C 112.88 1.792 111.946 2.788 111.28 4.062 C 110.614 5.335 110.281 6.767 110.281 8.355 C 110.281 9.965 110.631 11.393 111.33 12.64 C 112.029 13.886 112.99 14.843 114.212 15.51 C 115.434 16.177 116.81 16.511 118.341 16.511 C 120.388 16.511 122.057 15.838 123.345 14.493 L 123.411 14.493 L 123.411 16.246 C 123.411 17.416 122.981 18.386 122.123 19.158 C 121.263 19.93 120.053 20.316 118.489 20.316 C 117.421 20.316 116.483 20.184 115.673 19.919 C 114.864 19.654 113.931 19.241 112.874 18.679 L 111.982 22.02 C 112.907 22.572 113.948 22.996 115.104 23.294 C 116.26 23.592 117.46 23.741 118.704 23.741 L 118.704 23.741 Z M 118.836 13.021 C 117.471 13.021 116.345 12.587 115.459 11.721 C 114.572 10.856 114.129 9.695 114.129 8.239 C 114.129 6.839 114.564 5.697 115.434 4.814 C 116.304 3.932 117.438 3.491 118.836 3.491 C 120.168 3.491 121.278 3.926 122.164 4.798 C 123.05 5.669 123.494 6.8 123.494 8.189 C 123.494 9.59 123.061 10.745 122.197 11.655 C 121.333 12.565 120.212 13.02 118.836 13.02 L 118.836 13.021 Z M 137.922 17.057 C 139.464 17.057 140.821 16.776 141.993 16.213 C 143.166 15.651 144.126 14.89 144.875 13.93 L 142.233 11.664 C 141.198 12.965 139.827 13.616 138.12 13.616 C 136.91 13.616 135.883 13.279 135.04 12.606 C 134.198 11.934 133.656 11.013 133.413 9.844 L 145.437 9.844 C 145.503 9.447 145.536 8.944 145.536 8.338 C 145.536 6.739 145.211 5.311 144.561 4.053 C 143.931 2.816 142.956 1.788 141.754 1.092 C 140.532 0.375 139.122 0.017 137.526 0.017 C 136.433 0.009 135.349 0.22 134.338 0.637 C 133.348 1.051 132.494 1.627 131.778 2.366 C 131.063 3.105 130.501 4.004 130.094 5.062 C 129.687 6.122 129.483 7.274 129.483 8.52 C 129.483 10.208 129.852 11.705 130.589 13.012 C 131.327 14.319 132.335 15.32 133.612 16.015 C 134.889 16.71 136.326 17.057 137.922 17.057 Z M 141.737 6.783 L 133.48 6.783 C 133.744 5.724 134.256 4.905 135.015 4.326 C 135.775 3.747 136.678 3.458 137.724 3.458 C 138.781 3.458 139.654 3.756 140.342 4.351 C 141.03 4.947 141.495 5.757 141.737 6.783 Z" style="fill: rgb(255, 255, 255);"/>
    </g>
    <g fill="#F3603C">
      <path d="M2.786 10.286c1.538 0 2.785 1.279 2.785 2.857C5.571 14.72 4.324 16 2.786 16 1.247 16 0 14.72 0 13.143c0-1.578 1.247-2.857 2.786-2.857zM2.786 0C4.324 0 5.57 1.28 5.57 2.857c0 1.578-1.247 2.857-2.785 2.857C1.247 5.714 0 4.435 0 2.857 0 1.28 1.247 0 2.786 0zm10.028 0C14.353 0 15.6 1.28 15.6 2.857c0 1.578-1.247 2.857-2.786 2.857-1.538 0-2.785-1.279-2.785-2.857C10.029 1.28 11.276 0 12.814 0z"/>
      <ellipse cx="12.814" cy="13.257" opacity=".5" rx="2.786" ry="2.857"/>
    </g>
  </g>
</svg>